<svg width="20" height="20" viewBox="0 0 20 20" fill="none" xmlns="http://www.w3.org/2000/svg">
<path d="M19.1306 2.53216C19.6327 2.05023 19.6327 1.2473 19.1307 0.765345C18.6568 0.310421 17.9084 0.31044 17.4345 0.765389L10.0001 7.9032L2.56561 0.765387C2.09176 0.31044 1.34334 0.31042 0.86946 0.765344C0.367422 1.2473 0.367441 2.05023 0.869503 2.53216L8.23255 9.6L0.869507 16.6678C0.367444 17.1497 0.367423 17.9527 0.869463 18.4346C1.34334 18.8896 2.09175 18.8895 2.56561 18.4346L10.0001 11.2968L17.4345 18.4346C17.9084 18.8895 18.6568 18.8896 19.1307 18.4346C19.6327 17.9527 19.6327 17.1497 19.1306 16.6678L11.7676 9.6L19.1306 2.53216Z" fill="#222222"/>
</svg>
