<svg width="24" height="24" viewBox="0 0 24 24" fill="none" xmlns="http://www.w3.org/2000/svg">
<path fill-rule="evenodd" clip-rule="evenodd" d="M1.99365 6C1.99365 5.44772 2.43997 5 2.99054 5H20.9345C21.485 5 21.9313 5.44772 21.9313 6C21.9313 6.55228 21.485 7 20.9345 7H2.99054C2.43997 7 1.99365 6.55228 1.99365 6ZM1.99365 12C1.99365 11.4477 2.43997 11 2.99054 11H20.9345C21.485 11 21.9313 11.4477 21.9313 12C21.9313 12.5523 21.485 13 20.9345 13H2.99054C2.43997 13 1.99365 12.5523 1.99365 12ZM1.99365 18C1.99365 17.4477 2.43997 17 2.99054 17H20.9345C21.485 17 21.9313 17.4477 21.9313 18C21.9313 18.5523 21.485 19 20.9345 19H2.99054C2.43997 19 1.99365 18.5523 1.99365 18Z" fill="black"/>
</svg>
